<?xml version="1.0" encoding="UTF-8" standalone="no"?>
<!-- Created with Inkscape (http://www.inkscape.org/) -->

<svg
   xmlns:dc="http://purl.org/dc/elements/1.1/"
   xmlns:cc="http://creativecommons.org/ns#"
   xmlns:rdf="http://www.w3.org/1999/02/22-rdf-syntax-ns#"
   xmlns:svg="http://www.w3.org/2000/svg"
   xmlns="http://www.w3.org/2000/svg"
   xmlns:sodipodi="http://sodipodi.sourceforge.net/DTD/sodipodi-0.dtd"
   xmlns:inkscape="http://www.inkscape.org/namespaces/inkscape"
   width="1000"
   height="1000"
   viewBox="0 0 1000 1000"
   id="svg2"
   version="1.1"
   inkscape:version="0.91 r13725"
   sodipodi:docname="explanaria_logo3.svg"
   inkscape:export-filename="/home/tzst/Dropbox/Programs/explanaria/favicon.ico"
   inkscape:export-xdpi="23.040001"
   inkscape:export-ydpi="23.040001">
  <defs
     id="defs4" />
  <sodipodi:namedview
     id="base"
     pagecolor="#ffffff"
     bordercolor="#666666"
     borderopacity="1.0"
     inkscape:pageopacity="0.0"
     inkscape:pageshadow="2"
     inkscape:zoom="0.35"
     inkscape:cx="543.18043"
     inkscape:cy="262.31818"
     inkscape:document-units="px"
     inkscape:current-layer="layer1"
     showgrid="false"
     inkscape:window-width="1353"
     inkscape:window-height="1024"
     inkscape:window-x="0"
     inkscape:window-y="0"
     inkscape:window-maximized="0"
     units="px" />
  <metadata
     id="metadata7">
    <rdf:RDF>
      <cc:Work
         rdf:about="">
        <dc:format>image/svg+xml</dc:format>
        <dc:type
           rdf:resource="http://purl.org/dc/dcmitype/StillImage" />
        <dc:title />
      </cc:Work>
    </rdf:RDF>
  </metadata>
  <g
     inkscape:label="Layer 1"
     inkscape:groupmode="layer"
     id="layer1"
     transform="translate(0,-52.36216)">
    <path
       inkscape:connector-curvature="0"
       style="fill:#f0ad63;fill-opacity:1;stroke:#000000;stroke-width:7.41168022;stroke-miterlimit:4;stroke-dasharray:none;stroke-dashoffset:0;stroke-opacity:1"
       d="m 220.31164,62.47855 c -59.29145,34.23193 -27.66211,300.08358 -27.66211,300.08358 l 72.51129,-41.86441 c 56.48526,102.99274 210.63602,381.39361 306.79794,529.25 38.55281,59.27805 94.59829,147.90608 124.92337,171.45198 30.32508,23.5457 63.09497,26.4135 85.00829,13.7619 21.91332,-12.6517 38.75097,-35.31042 30.58603,-80.50027 C 804.3115,909.47129 758.51626,823.77519 726.45644,760.74852 646.48995,603.54161 482.4631,330.84271 421.5114,230.42867 l 72.51129,-41.86441 c 0,0 -214.41962,-160.317639 -273.71105,-126.08571 z"
       id="rect4212" />
    <ellipse
       style="fill:#ffffff;fill-opacity:1;stroke:#000000;stroke-width:7.41167974;stroke-miterlimit:4;stroke-dasharray:none;stroke-dashoffset:0;stroke-opacity:1"
       id="path4233"
       cx="205.97514"
       cy="308.43515"
       rx="19.058605"
       ry="38.11721"
       transform="matrix(0.8660254,-0.5,0.5,0.8660254,0,0)" />
    <ellipse
       style="fill:#000000;fill-opacity:1;stroke:#000000;stroke-width:7.41167974;stroke-miterlimit:4;stroke-dasharray:none;stroke-dashoffset:0;stroke-opacity:1"
       id="path4235"
       cx="196.50877"
       cy="310.35721"
       rx="9.3586588"
       ry="19.466011"
       transform="matrix(0.8660254,-0.5,0.5,0.8660254,0,0)" />
    <ellipse
       ry="38.11721"
       rx="19.058605"
       cy="306.93774"
       cx="-113.13726"
       id="ellipse4256"
       style="fill:#ffffff;fill-opacity:1;stroke:#000000;stroke-width:7.41167974;stroke-miterlimit:4;stroke-dasharray:none;stroke-dashoffset:0;stroke-opacity:1"
       transform="matrix(-0.8660254,0.5,0.5,0.8660254,0,0)" />
    <ellipse
       ry="19.466011"
       rx="9.3586588"
       cy="308.85986"
       cx="-122.60362"
       id="ellipse4258"
       style="fill:#000000;fill-opacity:1;stroke:#000000;stroke-width:7.41167974;stroke-miterlimit:4;stroke-dasharray:none;stroke-dashoffset:0;stroke-opacity:1"
       transform="matrix(-0.8660254,0.5,0.5,0.8660254,0,0)" />
    <path
       inkscape:connector-curvature="0"
       style="fill:#ed9a3f;fill-opacity:1;stroke:#000000;stroke-width:7.41168022;stroke-miterlimit:4;stroke-dasharray:none;stroke-dashoffset:0;stroke-opacity:1"
       d="M 779.68836,65.237527 C 720.39692,31.005598 505.97731,191.32323 505.97731,191.32323 l 72.51129,41.86442 C 517.5369,333.6017 353.51005,606.3006 273.54355,763.50751 c -32.05981,63.02668 -80.79125,155.87755 -86.02001,193.91268 -5.22875,38.03531 8.67271,67.84871 30.58603,80.50031 21.91332,12.6517 49.95514,15.9041 85.00829,-13.7618 35.05315,-29.66609 86.37056,-112.17388 124.92337,-171.45193 96.16193,-147.85646 250.31269,-426.25732 306.79795,-529.25008 l 72.51129,41.86442 c 0,0 31.62934,-265.851653 -27.66211,-300.083583 z"
       id="rect4212-3" />
    <ellipse
       style="fill:#ffffff;fill-opacity:1;stroke:#000000;stroke-width:7.41167974;stroke-miterlimit:4;stroke-dasharray:none;stroke-dashoffset:0;stroke-opacity:1"
       id="path4233-6"
       cx="754.26758"
       cy="-189.17549"
       rx="19.058605"
       ry="38.11721"
       transform="matrix(0.8660254,0.5,-0.5,0.8660254,0,0)" />
    <ellipse
       style="fill:#000000;fill-opacity:1;stroke:#000000;stroke-width:7.41167974;stroke-miterlimit:4;stroke-dasharray:none;stroke-dashoffset:0;stroke-opacity:1"
       id="path4235-2"
       cx="744.80121"
       cy="-187.25343"
       rx="9.3586588"
       ry="19.466011"
       transform="matrix(0.8660254,0.5,-0.5,0.8660254,0,0)" />
    <ellipse
       ry="38.11721"
       rx="19.058605"
       cy="-190.6729"
       cx="-661.42975"
       id="ellipse4256-1"
       style="fill:#ffffff;fill-opacity:1;stroke:#000000;stroke-width:7.41167974;stroke-miterlimit:4;stroke-dasharray:none;stroke-dashoffset:0;stroke-opacity:1"
       transform="matrix(-0.8660254,-0.5,-0.5,0.8660254,0,0)" />
    <ellipse
       ry="19.466011"
       rx="9.3586588"
       cy="-188.75082"
       cx="-670.89612"
       id="ellipse4258-2"
       style="fill:#000000;fill-opacity:1;stroke:#000000;stroke-width:7.41167974;stroke-miterlimit:4;stroke-dasharray:none;stroke-dashoffset:0;stroke-opacity:1"
       transform="matrix(-0.8660254,-0.5,-0.5,0.8660254,0,0)" />
  </g>
</svg>
